<svg xmlns="http://www.w3.org/2000/svg" viewBox="0 0 48 48">
  <path fill="#EA4335" d="M24 9.5c3.54 0 6.71 1.22 9.21 3.6l6.84-6.84C35.38 2.6 29.99 0 24 0 14.7 0 6.6 5.45 2.7 13.34l7.97 6.19C12.3 13.6 17.7 9.5 24 9.5z"></path>
  <path fill="#4285F4" d="M46.5 24.5c0-1.56-.14-3.06-.41-4.5H24v9.01h12.7c-.55 2.82-2.23 5.21-4.7 6.84l7.27 5.64C43.91 37.56 46.5 31.5 46.5 24.5z"></path>
  <path fill="#FBBC05" d="M10.67 28.15A14.48 14.48 0 0 1 9.5 24c0-1.44.25-2.84.71-4.15l-7.97-6.19A23.857 23.857 0 0 0 0 24c0 3.9.94 7.58 2.58 10.84l8.09-6.69z"></path>
  <path fill="#34A853" d="M24 48c6.48 0 11.93-2.15 15.91-5.86l-7.27-5.64c-2.02 1.35-4.6 2.15-8.64 2.15-6.3 0-11.7-4.1-13.63-9.65l-8.09 6.69C6.6 42.55 14.7 48 24 48z"></path>
  <path fill="none" d="M0 0h48v48H0z"></path>
</svg>
