<svg xmlns="http://www.w3.org/2000/svg" viewBox="0 0 448 512">
  <defs>
    <radialGradient id="ig-gradient" cx="30%" cy="107%" r="150%" fx="30%" fy="107%">
      <stop offset="0%" stop-color="#fdf497"></stop>
      <stop offset="5%" stop-color="#fdf497"></stop>
      <stop offset="45%" stop-color="#fd5949"></stop>
      <stop offset="60%" stop-color="#d6249f"></stop>
      <stop offset="90%" stop-color="#285AEB"></stop>
    </radialGradient>
  </defs>
  <path fill="url(#ig-gradient)" d="M224.1 141c-63.6 0-114.9 51.3-114.9 114.9S160.5 370.8 224.1 370.8 
  339 319.5 339 255.9 287.7 141 224.1 141zm0 189.6c-41.2 0-74.7-33.5-74.7-74.7s33.5-74.7 
  74.7-74.7 74.7 33.5 74.7 74.7-33.5 74.7-74.7 74.7zm146.4-194.3c0 14.9-12 26.9-26.9 
  26.9s-26.9-12-26.9-26.9 12-26.9 
  26.9-26.9 26.9 12 26.9 26.9zm76.1 27.2c-1.7-35.9-9.9-67.8-36.2-94.1C383.9 42 351.9 33.8 
  316 32.1 279.7 30.3 168.3 30.3 132 32.1c-35.9 1.7-67.8 9.9-94.1 36.2S3.8 128.1 2.1 
  164c-1.8 36.3-1.8 147.7 0 184 1.7 35.9 9.9 67.8 36.2 
  94.1s58.2 34.5 94.1 36.2c36.3 1.8 147.7 1.8 184 
  0 35.9-1.7 67.8-9.9 94.1-36.2 26.3-26.3 34.5-58.2 
  36.2-94.1 1.8-36.3 1.8-147.6 0-183.9zM398.8 
  388c-7.8 19.6-22.9 34.7-42.6 
  42.6-29.5 11.7-99.5 9-132.1 9s-102.7 
  2.6-132.1-9c-19.6-7.8-34.7-22.9-42.6-42.6-11.7-29.5-9-99.5-9-132.1s-2.6-102.7 
  9-132.1c7.8-19.6 22.9-34.7 42.6-42.6C125.9 69.5 
  195.9 72.1 228.5 72.1s102.7-2.6 132.1 
  9c19.6 7.8 34.7 22.9 42.6 
  42.6 11.7 29.5 9 99.5 9 
  132.1s2.7 102.7-9 132.2z"></path>
</svg>
