<svg xmlns="http://www.w3.org/2000/svg" width="48" height="48" viewBox="0 0 48 48">
  <path fill="white" d="M31.5,16.5c1.7,1.2,3.7,2,5.9,2.2v4.5c-2.7,0-5.2-0.8-7.3-2.3v8.8c0,5-4.1,9.1-9.1,9.1s-9.1-4.1-9.1-9.1
  s4.1-9.1,9.1-9.1c0.3,0,0.6,0,0.9,0v4.7c-0.3,0-0.6-0.1-0.9-0.1c-2.5,0-4.5,2-4.5,4.5s2,4.5,4.5,4.5s4.5-2,4.5-4.5V7.5h5.1
  C30.1,9.8,30.6,13.2,31.5,16.5z"></path>
  <filter id="neon">
    <feDropShadow dx="0" dy="0" stdDeviation="2" flood-color="#ff0050"></feDropShadow>
    <feDropShadow dx="0" dy="0" stdDeviation="3" flood-color="#00f5ff"></feDropShadow>
  </filter>
  <g filter="url(#neon)">
    <path fill="white" d="M31.5,16.5c1.7,1.2,3.7,2,5.9,2.2v4.5c-2.7,0-5.2-0.8-7.3-2.3v8.8c0,5-4.1,9.1-9.1,9.1s-9.1-4.1-9.1-9.1
    s4.1-9.1,9.1-9.1c0.3,0,0.6,0,0.9,0v4.7c-0.3,0-0.6-0.1-0.9-0.1c-2.5,0-4.5,2-4.5,4.5s2,4.5,4.5,4.5s4.5-2,4.5-4.5V7.5h5.1
    C30.1,9.8,30.6,13.2,31.5,16.5z"></path>
  </g>
</svg>
