<svg width="32" height="32" viewBox="0 0 192 192" xmlns="http://www.w3.org/2000/svg" aria-label="YouTube">
  <path fill="#FF0000" d="M168 62.4s-1.2-12-4.8-17.3c-4.6-6.8-9.6-6.9-11.9-7.3C131.2 35.2 96 35.2 96 35.2h-.1s-35.2 0-55.2 2.6c-2.3.4-7.3.5-11.9 7.3C25.2 50.4 24 62.4 24 62.4S22.8 76 22.8 89.6v12.8C22.8 116 24 129.6 24 129.6s1.2 12 4.8 17.3c4.6 6.8 10.6 6.6 13.2 7.3 9.6 1 54 2.5 54 2.5s35.2-.1 55.2-2.7c2.3-.4 7.3-.5 11.9-7.3 3.6-5.3 4.8-17.3 4.8-17.3s1.2-13.6 1.2-27.2V89.6C169.2 76 168 62.4 168 62.4z"></path>
  <path fill="#fff" d="m80 70 44 26-44 26z"></path>
</svg>
